<?xml version="1.0" encoding="UTF-8" standalone="no"?>
<!-- Created with Inkscape (http://www.inkscape.org/) -->

<svg
   width="40"
   height="40"
   viewBox="0 0 10.583334 10.583333"
   version="1.1"
   id="svg1"
   xml:space="preserve"
   inkscape:version="1.3.2 (091e20e, 2023-11-25, custom)"
   sodipodi:docname="pluginIcon_dark.svg"
   inkscape:export-filename="doloc-logo-v1-export.svg"
   inkscape:export-xdpi="96"
   inkscape:export-ydpi="96"
   xmlns:inkscape="http://www.inkscape.org/namespaces/inkscape"
   xmlns:sodipodi="http://sodipodi.sourceforge.net/DTD/sodipodi-0.dtd"
   xmlns="http://www.w3.org/2000/svg"
   xmlns:svg="http://www.w3.org/2000/svg"><sodipodi:namedview
     id="namedview1"
     pagecolor="#ffffff"
     bordercolor="#000000"
     borderopacity="0.25"
     inkscape:showpageshadow="2"
     inkscape:pageopacity="0.0"
     inkscape:pagecheckerboard="0"
     inkscape:deskcolor="#d1d1d1"
     inkscape:document-units="px"
     showgrid="true"
     inkscape:zoom="21.184188"
     inkscape:cx="20.534183"
     inkscape:cy="20.180146"
     inkscape:window-width="1920"
     inkscape:window-height="1080"
     inkscape:window-x="8808"
     inkscape:window-y="871"
     inkscape:window-maximized="0"
     inkscape:current-layer="layer1"
     showguides="true"
     inkscape:export-bgcolor="#c6c6c600"><inkscape:grid
       id="grid7"
       units="mm"
       originx="-4.7177615"
       originy="-9.4164982"
       spacingx="0.99999998"
       spacingy="1"
       empcolor="#0099e5"
       empopacity="0.30196078"
       color="#0099e5"
       opacity="0.14901961"
       empspacing="5"
       dotted="false"
       gridanglex="30"
       gridanglez="30"
       visible="true" /><sodipodi:guide
       position="26.282239,258.41651"
       orientation="0,-1"
       id="guide15"
       inkscape:locked="false" /></sodipodi:namedview><defs
     id="defs1" /><g
     inkscape:label="Ebene 1"
     inkscape:groupmode="layer"
     id="layer1"
     style="display:inline"
     transform="translate(-4.7177613,-9.4164978)"><g
       id="g10"
       inkscape:label="icon"
       transform="matrix(0.07106076,0,0,0.07106076,-15.430812,-4.422068)"
       style="fill:#ececec"><path
         d="m 331.42668,208.98164 26.41475,7.64051 0.76474,0.22162 0.76337,-0.22116 26.41475,-7.64052 12.37093,21.42879 -12.53087,21.70779 -26.67041,-3.42655 -0.35021,-0.046 -0.35022,0.046 -26.66574,3.42655 -12.5332,-21.70779 12.37093,-21.42995 m 55.66044,-3.23592 -28.47988,8.23881 -28.48221,-8.23881 -14.23994,24.66598 14.23994,24.66363 28.48104,-3.66036 28.48105,3.66036 14.24227,-24.66363 z"
         id="path1"
         style="stroke-width:0.11674;fill:#ececec" /><path
         d="m 374.7302,235.52597 -2.78355,-4.42701 2.6403,-4.26825 5.70882,-0.5536 2.78623,4.82194 -2.78623,4.81914 z"
         id="path2"
         style="stroke-width:0.11674;fill:#ececec" /><path
         d="m 336.91345,235.91821 -2.78214,-4.81914 2.78214,-4.82194 5.42293,0.5536 2.9262,4.26825 -2.78355,4.42701 z"
         id="path3"
         style="stroke-width:0.11674;fill:#ececec" /><path
         d="m 362.67446,259.2487 21.64825,3.17428 v 54.28173 l -21.64825,-57.4559 m -4.21221,-3.3914 28.60712,75.92298 v -71.73087 z"
         id="path4"
         style="stroke-width:0.11674;fill:#ececec" /><path
         d="m 352.37099,259.60823 19.03795,49.19773 -29.30523,-19.66832 -6.83617,-27.13506 17.10357,-2.39407 m 1.77479,-3.02302 -22.28915,3.12097 7.84072,31.12635 37.41749,25.11078 z"
         id="path5"
         style="stroke-width:0.11674;fill:#ececec" /><path
         d="m 384.45113,218.1072 -13.95159,2.56781 -11.89463,22.17475 -11.89464,-22.17475 -13.95042,-2.56781 -7.10421,12.30439 7.06043,12.22968 13.99829,-1.25636 3.1661,-4.9437 -1.55953,-2.40274 -3.11275,4.85568 -11.0638,0.9932 -5.47031,-9.47555 5.427,-9.3999 11.08762,2.04388 13.41692,25.21116 13.41458,-25.21116 11.09077,-2.04388 5.42572,9.3999 -5.46903,9.47555 -11.06567,-0.9932 -3.08719,-4.87389 -1.56373,2.42095 3.14381,4.9437 14.00062,1.25636 7.06183,-12.22968 z"
         id="path6"
         style="stroke-width:0.11674;fill:#ececec" /></g></g><g
     inkscape:groupmode="layer"
     id="layer2"
     inkscape:label="text-joint-lines"
     transform="translate(-4.7177613,-9.4164978)" /></svg>
